<mxfile host="app.diagrams.net" modified="2021-06-30T09:10:47.062Z" agent="5.0 (Windows NT 10.0; Win64; x64) AppleWebKit/537.36 (KHTML, like Gecko) Chrome/91.0.4472.114 Safari/537.36" etag="05xaVbEK0nfHU_P7F0L6" version="14.8.1" type="github">
  <diagram id="-VDqTMFOUdqTUBOHut5n" name="第 1 页">
    <mxGraphModel dx="1422" dy="772" grid="1" gridSize="10" guides="1" tooltips="1" connect="1" arrows="1" fold="1" page="1" pageScale="1" pageWidth="827" pageHeight="1169" math="0" shadow="0">
      <root>
        <mxCell id="0" />
        <mxCell id="1" parent="0" />
        <mxCell id="zOtERRI5a5NgmAWoLWOh-3" style="edgeStyle=orthogonalEdgeStyle;rounded=0;orthogonalLoop=1;jettySize=auto;html=1;entryX=0.5;entryY=0;entryDx=0;entryDy=0;" edge="1" parent="1" source="zOtERRI5a5NgmAWoLWOh-1" target="zOtERRI5a5NgmAWoLWOh-2">
          <mxGeometry relative="1" as="geometry" />
        </mxCell>
        <mxCell id="zOtERRI5a5NgmAWoLWOh-1" value="医务人员调阅健康档案，征求居民授权" style="rounded=0;whiteSpace=wrap;html=1;" vertex="1" parent="1">
          <mxGeometry x="280" y="110" width="120" height="60" as="geometry" />
        </mxCell>
        <mxCell id="zOtERRI5a5NgmAWoLWOh-2" value="居民授权健康档案给医务人员" style="rounded=0;whiteSpace=wrap;html=1;" vertex="1" parent="1">
          <mxGeometry x="280" y="250" width="120" height="60" as="geometry" />
        </mxCell>
      </root>
    </mxGraphModel>
  </diagram>
</mxfile>
